<?xml version="1.0" standalone="no"?>
<!DOCTYPE svg PUBLIC "-//W3C//DTD SVG 20010904//EN"
 "http://www.w3.org/TR/2001/REC-SVG-20010904/DTD/svg10.dtd">
<svg version="1.0" xmlns="http://www.w3.org/2000/svg"
 width="1000.000000pt" height="316.000000pt" viewBox="0 0 1000.000000 316.000000"
 preserveAspectRatio="xMidYMid meet">

<g transform="translate(0.000000,316.000000) scale(0.100000,-0.100000)"
fill="#000000" stroke="none">
<path d="M7460 2572 c-190 -53 -386 -206 -465 -363 -58 -115 -79 -206 -78
-344 0 -146 17 -216 81 -340 91 -176 245 -299 449 -357 113 -33 330 -32 458 1
105 28 263 90 317 126 l38 25 0 290 0 290 -165 0 -165 0 0 -184 0 -184 -52
-20 c-93 -37 -133 -44 -209 -40 -89 4 -181 44 -247 107 -135 129 -148 399 -26
558 71 94 215 142 363 122 95 -13 160 -39 239 -96 53 -38 66 -43 76 -32 58 65
174 205 186 225 14 25 14 27 -25 60 -50 42 -173 107 -268 141 -66 24 -88 27
-257 30 -155 2 -196 0 -250 -15z"/>
<path d="M8940 2574 c-133 -36 -266 -119 -371 -232 -69 -74 -103 -134 -141
-247 -20 -61 -23 -89 -23 -225 0 -137 3 -164 24 -228 13 -40 28 -75 32 -78 5
-3 9 -14 9 -24 0 -10 6 -25 13 -32 6 -7 25 -33 41 -58 80 -124 239 -232 412
-282 66 -19 103 -23 224 -22 172 0 228 12 376 84 90 43 110 58 187 140 70 74
96 109 131 183 58 123 66 161 66 329 0 132 -3 149 -30 227 -75 218 -284 406
-515 466 -80 20 -357 20 -435 -1z m283 -315 c113 -17 178 -59 238 -151 114
-178 84 -422 -68 -550 -31 -26 -81 -57 -112 -69 -152 -57 -352 19 -436 165
-33 60 -59 177 -52 246 17 186 127 323 286 355 36 7 67 14 69 14 2 1 36 -4 75
-10z"/>
<path d="M4537 2573 c-4 -3 -7 -321 -7 -705 l0 -698 490 0 490 0 0 160 0 160
-295 0 -295 0 0 545 0 545 -188 0 c-104 0 -192 -3 -195 -7z"/>
<path d="M5657 2573 c-4 -3 -7 -321 -7 -705 l0 -698 575 0 575 0 0 150 0 150
-380 0 -380 0 0 118 0 119 158 6 c86 4 237 7 335 7 l177 0 0 150 0 150 -335 0
-335 0 0 120 0 120 370 0 370 0 0 160 0 160 -558 0 c-307 0 -562 -3 -565 -7z"/>
<path d="M414 2370 c-85 -34 -60 -164 31 -164 78 0 112 89 56 145 -30 30 -50
34 -87 19z"/>
<path d="M1970 2050 c-67 -14 -149 -60 -183 -103 -25 -30 -32 -49 -35 -97 -6
-86 4 -122 48 -173 46 -52 90 -74 217 -110 179 -51 228 -90 220 -175 -9 -84
-64 -117 -197 -116 -81 1 -104 5 -154 28 -33 14 -75 38 -92 51 -18 14 -35 25
-38 25 -6 0 -56 -83 -56 -93 0 -13 120 -77 183 -97 56 -18 85 -21 176 -18 101
3 113 5 177 38 78 40 107 76 124 152 15 71 -2 148 -42 194 -38 43 -94 72 -223
114 -177 58 -215 87 -215 164 0 68 62 106 171 106 69 -1 171 -23 203 -44 14
-9 29 -16 34 -16 9 0 42 76 42 95 0 11 -62 41 -128 61 -58 18 -177 25 -232 14z"/>
<path d="M380 1568 c0 -304 -4 -497 -11 -520 -22 -80 -92 -116 -171 -89 -28
10 -35 9 -45 -6 -7 -9 -13 -32 -13 -50 0 -39 22 -51 107 -60 72 -8 134 12 188
59 75 66 75 66 75 645 l0 503 -65 0 -65 0 0 -482z"/>
<path d="M1029 2036 c-194 -54 -319 -221 -319 -426 0 -179 88 -330 232 -399
232 -110 516 -25 621 188 32 65 32 67 32 211 0 144 0 146 -32 206 -77 148
-230 235 -407 233 -44 0 -102 -7 -127 -13z m295 -140 c117 -69 176 -223 141
-371 -38 -165 -144 -250 -310 -249 -94 0 -158 24 -218 82 -51 49 -72 92 -86
178 -26 151 25 292 127 351 62 37 94 43 205 39 82 -4 104 -8 141 -30z"/>
<path d="M2790 2036 c-168 -47 -291 -193 -308 -364 -22 -215 63 -384 234 -464
135 -63 292 -61 430 7 81 40 124 71 124 90 0 14 -56 75 -70 75 -4 0 -14 -7
-21 -16 -49 -60 -170 -99 -280 -91 -137 9 -231 81 -269 205 -11 35 -20 68 -20
73 0 5 162 10 363 11 l362 3 -2 72 c-5 201 -108 346 -282 397 -65 19 -196 20
-261 2z m277 -132 c63 -31 106 -83 128 -157 28 -95 55 -87 -285 -87 -199 0
-300 3 -300 10 0 26 44 138 66 167 75 98 262 131 391 67z"/>
<path d="M3745 2037 c-219 -73 -333 -276 -284 -509 37 -175 157 -291 334 -320
129 -22 281 24 350 104 l35 42 0 -74 c0 -102 -24 -180 -71 -234 -110 -125
-358 -126 -507 -2 -16 15 -32 26 -35 26 -8 0 -57 -79 -57 -92 0 -16 24 -32
112 -75 167 -82 343 -83 498 -2 99 51 166 149 189 273 7 37 11 215 11 468 l0
408 -70 0 -70 0 0 -73 0 -73 -46 43 c-77 71 -142 97 -254 100 -59 2 -110 -2
-135 -10z m258 -117 c54 -16 114 -74 145 -140 22 -47 26 -69 26 -150 1 -121
-25 -191 -91 -250 -61 -54 -126 -74 -222 -68 -91 6 -141 28 -195 89 -62 68
-81 120 -81 224 0 73 5 100 24 142 30 68 105 138 162 153 24 6 49 13 54 15 16
7 137 -3 178 -15z"/>
<path fill="#f9ab00" d="M4520 845 l0 -245 260 0 260 0 0 245 0 245 -260 0 -260 0 0 -245z"/>
<path fill="#4285f4" d="M5120 845 l0 -245 260 0 260 0 0 245 0 245 -260 0 -260 0 0 -245z"/>
<path fill="#ea4335" d="M5720 840 l0 -250 250 0 250 0 0 250 0 250 -250 0 -250 0 0 -250z"/>
<path fill="#34a853" d="M6310 845 l0 -245 245 0 245 0 0 245 0 245 -245 0 -245 0 0 -245z"/>
</g>
</svg>
